<svg width="266" height="123" viewBox="0 0 266 123" fill="none" xmlns="http://www.w3.org/2000/svg">
<path d="M34.0226 110.037L33.2866 113.909H25.7666V113.589C25.8733 112.159 25.9266 110.453 25.9266 108.469V95.7326H17.0946V108.469C17.0946 110.239 17.148 111.946 17.2546 113.589V113.909H12.0066V113.589C12.1346 112.159 12.1986 110.453 12.1986 108.469V94.9966C11.9213 94.9966 11.4626 95.0606 10.8226 95.1886C10.1826 95.3166 9.61729 95.4446 9.12663 95.5726L8.99863 95.3806L9.73463 91.5086H31.0146V91.8286C30.8866 93.4712 30.8226 95.1779 30.8226 96.9486V110.421C31.1 110.421 31.5586 110.357 32.1986 110.229C32.8386 110.079 33.404 109.951 33.8946 109.845L34.0226 110.037ZM41.0406 114.261C39.334 114.261 38.0113 113.855 37.0726 113.045C36.1553 112.213 35.6966 111.125 35.6966 109.781C35.6966 108.586 36.038 107.626 36.7206 106.901C37.4033 106.175 38.2886 105.653 39.3766 105.333C40.486 104.991 41.8406 104.757 43.4406 104.629C44.2726 104.565 44.9446 104.479 45.4566 104.373C45.9686 104.266 46.374 104.106 46.6726 103.893C46.9713 103.679 47.1206 103.391 47.1206 103.029C47.1206 102.367 46.8646 101.855 46.3526 101.493C45.8406 101.109 45.1473 100.917 44.2726 100.917C43.6113 100.917 43.0033 101.045 42.4486 101.301C41.894 101.535 41.4033 101.887 40.9766 102.357C40.5713 102.805 40.2513 103.327 40.0166 103.925L39.9526 104.053L36.9126 103.509L38.7046 96.5966H42.3846L42.5446 96.7566L41.9046 98.2606C42.2033 98.1112 42.47 98.0046 42.7046 97.9406C43.0246 97.8339 43.366 97.7486 43.7286 97.6846C44.1126 97.6206 44.5393 97.5886 45.0086 97.5886C46.7793 97.5886 48.1873 98.1539 49.2326 99.2846C50.278 100.415 50.8006 101.951 50.8006 103.893V110.677C51.078 110.677 51.8246 110.538 53.0406 110.261C53.126 110.239 53.2006 110.229 53.2646 110.229C53.3286 110.207 53.3926 110.186 53.4566 110.165L53.5846 110.357L52.9446 113.909H47.0566V113.589C47.078 113.418 47.0886 113.237 47.0886 113.045C47.11 112.831 47.1206 112.618 47.1206 112.405C47.1206 112.277 47.1206 112.159 47.1206 112.053C47.142 111.925 47.1526 111.807 47.1526 111.701C46.5126 112.49 45.6486 113.119 44.5606 113.589C43.4726 114.037 42.2993 114.261 41.0406 114.261ZM42.1926 110.901C43.046 110.901 43.846 110.709 44.5926 110.325C45.3606 109.919 45.9686 109.397 46.4166 108.757C46.8646 108.095 47.0886 107.391 47.0886 106.645V106.261C46.726 106.495 46.2353 106.698 45.6166 106.869C45.0193 107.018 44.4006 107.125 43.7606 107.189C42.5233 107.274 41.574 107.466 40.9126 107.765C40.2513 108.063 39.9206 108.565 39.9206 109.269C39.9206 109.802 40.1233 110.207 40.5286 110.485C40.934 110.762 41.4886 110.901 42.1926 110.901ZM74.6616 110.357L73.9896 113.909H67.6216V113.589C67.707 112.159 67.7496 110.453 67.7496 108.469V107.701H61.1896V108.469C61.1896 110.175 61.2323 111.882 61.3176 113.589V113.909H56.9016V113.589C57.0083 111.882 57.0616 110.175 57.0616 108.469V101.141C56.699 101.141 55.9523 101.279 54.8216 101.557L54.3736 101.653L54.2776 101.461L54.9176 97.9086H57.8616C58.395 97.9086 59.0136 97.8872 59.7176 97.8446C60.4216 97.8019 60.9443 97.7486 61.2856 97.6846L61.3496 97.8766C61.243 99.4126 61.1896 101.237 61.1896 103.349V104.117H67.7496V102.261C67.7496 100.661 67.6963 99.2952 67.5896 98.1646V97.9086H68.5496C69.083 97.9086 69.7016 97.8872 70.4056 97.8446C71.1096 97.8019 71.6323 97.7486 71.9736 97.6846L72.0376 97.8766C71.931 99.1566 71.8776 100.981 71.8776 103.349V110.677C72.155 110.677 72.9016 110.538 74.1176 110.261C74.1816 110.239 74.2456 110.229 74.3096 110.229C74.395 110.207 74.4696 110.186 74.5336 110.165L74.6616 110.357ZM88.6766 104.533C88.4206 103.85 88.1006 103.263 87.7166 102.773C87.354 102.282 86.906 101.898 86.3726 101.621C85.8606 101.322 85.2633 101.173 84.5806 101.173C83.77 101.173 83.0553 101.375 82.4366 101.781C81.8393 102.165 81.37 102.719 81.0286 103.445C80.6873 104.17 80.5166 104.991 80.5166 105.909C80.5166 106.826 80.6873 107.647 81.0286 108.373C81.37 109.098 81.85 109.663 82.4686 110.069C83.0873 110.453 83.7913 110.645 84.5806 110.645C85.3913 110.645 86.0846 110.463 86.6606 110.101C87.2366 109.738 87.6953 109.29 88.0366 108.757C88.3993 108.202 88.7086 107.573 88.9646 106.869L92.6446 107.797L90.5966 115.253H86.9166L86.7886 115.093L87.5566 113.301C87.2153 113.514 86.874 113.685 86.5326 113.813C86.1913 113.941 85.818 114.047 85.4126 114.133C85.0286 114.218 84.6233 114.261 84.1966 114.261C82.746 114.261 81.4126 113.898 80.1966 113.173C78.9806 112.447 78.01 111.445 77.2846 110.165C76.5806 108.885 76.2286 107.445 76.2286 105.845C76.2286 104.266 76.5806 102.847 77.2846 101.589C77.9886 100.33 78.9486 99.3486 80.1646 98.6446C81.402 97.9192 82.778 97.5566 84.2926 97.5566C84.698 97.5566 85.082 97.5886 85.4446 97.6526C85.8073 97.7166 86.138 97.8019 86.4366 97.9086C86.5433 97.9512 86.65 97.9939 86.7566 98.0366C86.8633 98.0792 86.97 98.1219 87.0766 98.1646L86.4366 96.7886L86.5966 96.5966H90.3086L92.1326 103.637L88.6766 104.533ZM97.1516 113.589C97.2583 111.882 97.3116 110.175 97.3116 108.469V101.141C96.949 101.141 96.2023 101.279 95.0716 101.557L94.6236 101.653L94.5276 101.461L95.1676 97.9086H98.0796C98.613 97.9086 99.2316 97.8872 99.9356 97.8446C100.661 97.8019 101.194 97.7486 101.536 97.6846L101.568 97.8766C101.461 99.2632 101.408 100.885 101.408 102.741V103.733H103.776C106.016 103.733 107.754 104.181 108.992 105.077C110.25 105.951 110.88 107.199 110.88 108.821C110.88 110.442 110.25 111.701 108.992 112.597C107.754 113.471 106.016 113.909 103.776 113.909H97.1516V113.589ZM103.712 110.645C104.672 110.645 105.408 110.474 105.92 110.133C106.432 109.77 106.688 109.269 106.688 108.629C106.688 107.989 106.432 107.498 105.92 107.157C105.408 106.794 104.672 106.613 103.712 106.613H101.408V110.645H103.712ZM114.271 113.589C114.378 111.882 114.431 110.175 114.431 108.469V94.7406C114.069 94.7406 113.322 94.8792 112.191 95.1566L111.743 95.2526L111.647 95.0606L112.287 91.5086H115.199C115.775 91.5086 116.405 91.4872 117.087 91.4446C117.77 91.4019 118.282 91.3486 118.623 91.2846L118.719 91.4766C118.677 92.0739 118.634 92.9166 118.591 94.0046C118.549 95.2632 118.527 96.2446 118.527 96.9486V104.117H121.375L122.751 102.357C122.837 102.229 122.922 102.101 123.007 101.973C123.114 101.845 123.21 101.727 123.295 101.621C123.381 101.493 123.466 101.375 123.551 101.269C123.658 101.141 123.754 101.023 123.839 100.917C123.583 100.938 123.338 100.97 123.103 101.013C122.869 101.034 122.645 101.066 122.431 101.109C122.026 101.151 121.738 101.183 121.567 101.205L121.471 101.077L122.335 97.9086H130.079V98.2286C129.759 98.6126 129.439 98.9859 129.119 99.3486C128.671 99.8606 128.223 100.383 127.775 100.917C127.327 101.429 126.869 101.983 126.399 102.581L124.383 105.205L127.967 110.197C128.117 110.431 128.277 110.634 128.447 110.805C129.258 111.893 130.015 112.81 130.719 113.557V113.909H122.207L121.439 110.805L121.535 110.645C121.706 110.687 121.887 110.73 122.079 110.773C122.293 110.794 122.506 110.826 122.719 110.869C122.826 110.847 123.221 110.89 123.903 110.997L121.407 107.669H118.527V108.469C118.527 110.453 118.581 112.159 118.687 113.589V113.909H114.271V113.589ZM151.88 110.357L151.208 113.909H144.84V113.589C144.926 112.159 144.968 110.453 144.968 108.469V103.605L134.824 114.837H134.12C134.227 112.575 134.28 110.239 134.28 107.829V101.141C133.918 101.141 133.171 101.279 132.04 101.557L131.592 101.653L131.496 101.461L132.136 97.9086H135.048C135.582 97.9086 136.2 97.8872 136.904 97.8446C137.63 97.8019 138.163 97.7486 138.504 97.6846L138.536 97.8766C138.43 99.4126 138.376 101.226 138.376 103.317V106.037L145.512 97.9086H145.704C146.131 97.9086 146.686 97.8872 147.368 97.8446C148.051 97.8019 148.659 97.7486 149.192 97.6846L149.256 97.8766C149.214 98.2392 149.182 98.6339 149.16 99.0606C149.16 99.4872 149.15 99.9352 149.128 100.405C149.128 100.874 149.118 101.365 149.096 101.877C149.096 102.367 149.096 102.858 149.096 103.349V110.677C149.374 110.677 150.12 110.538 151.336 110.261C151.4 110.239 151.464 110.229 151.528 110.229C151.614 110.207 151.688 110.186 151.752 110.165L151.88 110.357ZM173.287 110.357L172.615 113.909H166.247V113.589C166.332 112.159 166.375 110.453 166.375 108.469V103.605L156.231 114.837H155.527C155.633 112.575 155.687 110.239 155.687 107.829V101.141C155.324 101.141 154.577 101.279 153.447 101.557L152.999 101.653L152.903 101.461L153.543 97.9086H156.455C156.988 97.9086 157.607 97.8872 158.311 97.8446C159.036 97.8019 159.569 97.7486 159.911 97.6846L159.943 97.8766C159.836 99.4126 159.783 101.226 159.783 103.317V106.037L166.919 97.9086H167.111C167.537 97.9086 168.092 97.8872 168.775 97.8446C169.457 97.8019 170.065 97.7486 170.599 97.6846L170.663 97.8766C170.62 98.2392 170.588 98.6339 170.567 99.0606C170.567 99.4872 170.556 99.9352 170.535 100.405C170.535 100.874 170.524 101.365 170.503 101.877C170.503 102.367 170.503 102.858 170.503 103.349V110.677C170.78 110.677 171.527 110.538 172.743 110.261C172.807 110.239 172.871 110.229 172.935 110.229C173.02 110.207 173.095 110.186 173.159 110.165L173.287 110.357ZM169.671 89.6846C169.671 90.8366 169.393 91.8606 168.839 92.7566C168.284 93.6312 167.505 94.3139 166.503 94.8046C165.521 95.2739 164.38 95.5086 163.079 95.5086C161.799 95.5086 160.657 95.2739 159.655 94.8046C158.652 94.3139 157.873 93.6312 157.319 92.7566C156.764 91.8606 156.487 90.8366 156.487 89.6846V89.5246L160.103 89.2366V89.6526C160.103 90.4419 160.369 91.0819 160.903 91.5726C161.457 92.0419 162.183 92.2766 163.079 92.2766C163.975 92.2766 164.7 92.0419 165.255 91.5726C165.809 91.0819 166.087 90.4419 166.087 89.6526V89.2366L169.671 89.5246V89.6846ZM181.573 118.133L182.853 109.237L183.013 109.141C183.568 109.333 183.941 109.45 184.133 109.493C184.325 109.557 184.528 109.621 184.741 109.685C184.954 109.727 185.178 109.781 185.413 109.845C186.032 107.839 186.512 105.791 186.853 103.701C187.216 101.589 187.397 99.6366 187.397 97.8446C187.397 97.5886 187.397 97.3219 187.397 97.0446C187.397 96.7672 187.397 96.4899 187.397 96.2126V94.9966C186.906 95.0392 186.096 95.1992 184.965 95.4766C184.88 95.4979 184.794 95.5192 184.709 95.5406C184.645 95.5406 184.581 95.5512 184.517 95.5726L184.389 95.3806L185.125 91.5086H203.461V91.8286C203.44 92.3406 203.418 92.8206 203.397 93.2686C203.376 93.7166 203.354 94.1432 203.333 94.5486C203.312 94.9539 203.301 95.3486 203.301 95.7326C203.301 96.1166 203.301 96.5219 203.301 96.9486V106.645C203.301 107.221 203.301 107.797 203.301 108.373C203.301 108.949 203.301 109.503 203.301 110.037H203.493L204.325 109.909L206.021 109.717L206.597 118.325L202.533 118.805L202.117 116.757C201.968 116.053 201.744 115.487 201.445 115.061C201.146 114.634 200.762 114.335 200.293 114.165C199.845 113.994 199.29 113.909 198.629 113.909H189.829C189.061 113.909 188.442 113.973 187.973 114.101C187.525 114.25 187.152 114.495 186.853 114.837C186.554 115.178 186.298 115.658 186.085 116.277L185.189 118.805L181.573 118.133ZM198.437 109.909V95.6046H192.197L192.165 96.3086C191.909 98.8472 191.568 101.215 191.141 103.413C190.736 105.61 190.213 107.775 189.573 109.909C189.85 109.909 190.128 109.909 190.405 109.909C190.682 109.909 190.96 109.909 191.237 109.909H198.437ZM210.339 113.589C210.446 111.882 210.499 110.175 210.499 108.469V101.141C210.136 101.141 209.39 101.279 208.259 101.557L207.811 101.653L207.715 101.461L208.355 97.9086H218.275C220.11 97.9086 221.55 98.2819 222.595 99.0286C223.64 99.7752 224.163 100.799 224.163 102.101C224.163 102.911 223.939 103.637 223.491 104.277C223.043 104.895 222.403 105.375 221.571 105.717C222.595 106.037 223.395 106.538 223.971 107.221C224.547 107.903 224.835 108.725 224.835 109.685C224.835 110.986 224.291 112.021 223.203 112.789C222.115 113.535 220.643 113.909 218.787 113.909H210.339V113.589ZM218.083 110.773C218.851 110.773 219.448 110.613 219.875 110.293C220.323 109.951 220.547 109.493 220.547 108.917C220.547 108.405 220.312 107.989 219.843 107.669C219.374 107.349 218.787 107.189 218.083 107.189H214.435V110.773H218.083ZM217.571 104.565C218.296 104.565 218.883 104.405 219.331 104.085C219.779 103.765 220.003 103.349 220.003 102.837C220.003 102.303 219.779 101.877 219.331 101.557C218.883 101.215 218.296 101.045 217.571 101.045H214.435V104.565H217.571ZM229.245 113.589C229.352 111.882 229.405 110.175 229.405 108.469V101.141C229.043 101.141 228.296 101.279 227.165 101.557L226.717 101.653L226.621 101.461L227.261 97.9086H230.173C230.728 97.9086 231.347 97.8872 232.029 97.8446C232.733 97.8019 233.267 97.7486 233.629 97.6846L233.693 97.8766C233.587 99.4126 233.533 101.237 233.533 103.349V110.677C233.768 110.677 234.472 110.549 235.645 110.293L236.189 110.165L236.285 110.357L235.645 113.909H229.245V113.589ZM233.917 90.0686L231.037 96.0846H230.717L227.837 90.0686H233.917ZM239.933 119.989C240.04 118.282 240.093 116.575 240.093 114.869V101.141C239.73 101.141 238.984 101.279 237.853 101.557L237.405 101.653L237.309 101.461L237.949 97.9086H240.221C240.754 97.9086 241.373 97.8872 242.077 97.8446C242.781 97.8019 243.304 97.7486 243.645 97.6846L243.709 97.8766C243.709 98.0472 243.698 98.2179 243.677 98.3886C243.677 98.5379 243.677 98.6979 243.677 98.8686C243.656 99.0179 243.645 99.1779 243.645 99.3486C243.645 99.5192 243.634 99.6899 243.613 99.8606C244.21 99.1352 244.968 98.5806 245.885 98.1966C246.824 97.7912 247.826 97.5886 248.893 97.5886C250.365 97.5886 251.677 97.9512 252.829 98.6766C253.981 99.3806 254.877 100.362 255.517 101.621C256.178 102.879 256.509 104.309 256.509 105.909C256.509 107.487 256.178 108.906 255.517 110.165C254.856 111.423 253.949 112.415 252.797 113.141C251.645 113.866 250.344 114.229 248.893 114.229C247.954 114.229 247.069 114.069 246.237 113.749C245.426 113.429 244.733 112.991 244.157 112.437V117.077C244.562 117.077 245.352 116.938 246.525 116.661C246.738 116.639 246.898 116.607 247.005 116.565L247.133 116.757L246.429 120.309H239.933V119.989ZM248.125 110.645C248.893 110.645 249.586 110.442 250.205 110.037C250.845 109.631 251.346 109.066 251.709 108.341C252.072 107.615 252.253 106.805 252.253 105.909C252.253 105.013 252.072 104.202 251.709 103.477C251.346 102.751 250.845 102.186 250.205 101.781C249.586 101.375 248.893 101.173 248.125 101.173C247.336 101.173 246.632 101.375 246.013 101.781C245.394 102.186 244.904 102.751 244.541 103.477C244.178 104.202 243.997 105.013 243.997 105.909C243.997 106.805 244.178 107.615 244.541 108.341C244.904 109.066 245.394 109.631 246.013 110.037C246.632 110.442 247.336 110.645 248.125 110.645Z" fill="url(#paint0_linear_9_51)"/>
<path fill-rule="evenodd" clip-rule="evenodd" d="M168.844 36.085C168.844 45.7742 165.435 54.047 158.608 60.8743C151.771 67.7114 143.508 71.13 133.819 71.13C124.169 71.13 115.905 67.7212 109.059 60.8743C102.222 54.047 98.7834 45.7742 98.7834 36.085C98.7834 26.4252 102.212 18.1914 109.059 11.3348C115.925 4.4977 124.178 1.05962 133.819 1.05962C143.508 1.05962 151.771 4.48793 158.608 11.3348C165.425 18.1914 168.844 26.4252 168.844 36.085ZM89.7878 29.6289C92.8645 27.5289 94.4077 24.7843 94.144 18.504V2.35867C94.1147 0.102433 90.0222 -0.171051 89.8171 2.35867L89.6608 15.4566C89.651 17.9082 85.9688 17.9863 85.9786 15.4566L86.1348 1.90938C86.086 -0.512905 82.1791 -0.757087 82.1303 1.90938C82.1303 5.66977 81.974 11.6962 81.974 15.4566C82.1693 17.83 78.7508 18.1426 78.8387 15.4566L78.995 1.99728C78.9071 0.170803 76.895 -0.483603 75.5276 0.375916C74.0723 1.30381 74.3653 3.16935 74.3067 4.74188L73.7988 20.1937C73.8769 24.6866 75.0588 28.3396 78.575 29.8926C79.1122 30.127 79.8545 30.3126 80.714 30.4395L79.5029 68.1217C79.4345 70.3584 81.261 72.1848 83.4 72.1848H83.8884C86.3009 72.1848 88.3422 70.1239 88.2739 67.6138L87.2092 30.4298C88.3325 30.254 89.2604 29.9903 89.7878 29.6289ZM178.055 66.9886L177.996 33.1451C166.129 26.2885 169.909 -0.131982 181.786 0.0145272C196.222 0.180571 197.931 29.7851 185.517 33.0376L186.435 67.1254C186.611 73.5718 178.064 74.1676 178.055 66.9886ZM154.213 36.0557C154.213 41.7012 152.23 46.5165 148.235 50.5113C144.25 54.4865 139.435 56.4888 133.789 56.4888C128.183 56.4888 123.368 54.4865 119.383 50.5113C115.398 46.5165 113.405 41.7012 113.405 36.0557C113.405 30.4493 115.398 25.6341 119.383 21.6588C123.377 17.6835 128.183 15.6812 133.789 15.6812C145.129 15.691 154.213 24.7062 154.213 36.0557ZM158.989 36.0557C158.989 29.121 156.547 23.1922 151.634 18.2793C146.721 13.3664 140.773 10.9246 133.789 10.9246C126.825 10.9246 120.897 13.3664 116.013 18.2793C111.1 23.1922 108.629 29.121 108.629 36.0557C108.629 43.01 111.1 48.9387 116.013 53.8712C120.897 58.7939 126.825 61.265 133.789 61.265C140.763 61.265 146.711 58.7939 151.634 53.8712C156.537 48.929 158.989 43.0002 158.989 36.0557Z" fill="url(#paint1_linear_9_51)"/>
<defs>
<linearGradient id="paint0_linear_9_51" x1="0" y1="102.183" x2="266" y2="102.183" gradientUnits="userSpaceOnUse">
<stop stop-color="#FFC100"/>
<stop offset="1" stop-color="#FFE184"/>
</linearGradient>
<linearGradient id="paint1_linear_9_51" x1="133.811" y1="0" x2="133.811" y2="72.1848" gradientUnits="userSpaceOnUse">
<stop stop-color="#FFC400"/>
<stop offset="0.44" stop-color="#FFD140"/>
<stop offset="1" stop-color="#FFE38D"/>
</linearGradient>
</defs>
</svg>
