<svg width="272" height="48" viewBox="0 0 272 48" fill="none" xmlns="http://www.w3.org/2000/svg">
<path d="M114.008 29.9773L113.502 32.6393H108.332V32.4193C108.405 31.4366 108.442 30.2633 108.442 28.8993V20.1433H102.37V28.8993C102.37 30.1166 102.407 31.2899 102.48 32.4193V32.6393H98.872V32.4193C98.96 31.4366 99.004 30.2633 99.004 28.8993V19.6373C98.8133 19.6373 98.498 19.6813 98.058 19.7693C97.618 19.8573 97.2293 19.9453 96.892 20.0333L96.804 19.9013L97.31 17.2393H111.94V17.4593C111.852 18.5886 111.808 19.7619 111.808 20.9793V30.2413C111.999 30.2413 112.314 30.1973 112.754 30.1093C113.194 30.0066 113.583 29.9186 113.92 29.8453L114.008 29.9773ZM118.833 32.8813C117.659 32.8813 116.75 32.6026 116.105 32.0453C115.474 31.4733 115.159 30.7253 115.159 29.8013C115.159 28.9799 115.393 28.3199 115.863 27.8213C116.332 27.3226 116.941 26.9633 117.689 26.7433C118.451 26.5086 119.383 26.3473 120.483 26.2593C121.055 26.2153 121.517 26.1566 121.869 26.0833C122.221 26.0099 122.499 25.8999 122.705 25.7533C122.91 25.6066 123.013 25.4086 123.013 25.1593C123.013 24.7046 122.837 24.3526 122.485 24.1033C122.133 23.8393 121.656 23.7073 121.055 23.7073C120.6 23.7073 120.182 23.7953 119.801 23.9713C119.419 24.1326 119.082 24.3746 118.789 24.6973C118.51 25.0053 118.29 25.3646 118.129 25.7753L118.085 25.8633L115.995 25.4893L117.227 20.7373H119.757L119.867 20.8473L119.427 21.8813C119.632 21.7786 119.815 21.7053 119.977 21.6613C120.197 21.5879 120.431 21.5293 120.681 21.4853C120.945 21.4413 121.238 21.4193 121.561 21.4193C122.778 21.4193 123.746 21.8079 124.465 22.5853C125.183 23.3626 125.543 24.4186 125.543 25.7533V30.4173C125.733 30.4173 126.247 30.3219 127.083 30.1313C127.141 30.1166 127.193 30.1093 127.237 30.1093C127.281 30.0946 127.325 30.0799 127.369 30.0653L127.457 30.1973L127.017 32.6393H122.969V32.4193C122.983 32.3019 122.991 32.1773 122.991 32.0453C123.005 31.8986 123.013 31.7519 123.013 31.6053C123.013 31.5173 123.013 31.4366 123.013 31.3633C123.027 31.2753 123.035 31.1946 123.035 31.1213C122.595 31.6639 122.001 32.0966 121.253 32.4193C120.505 32.7273 119.698 32.8813 118.833 32.8813ZM119.625 30.5713C120.211 30.5713 120.761 30.4393 121.275 30.1753C121.803 29.8966 122.221 29.5373 122.529 29.0973C122.837 28.6426 122.991 28.1586 122.991 27.6453V27.3813C122.741 27.5426 122.404 27.6819 121.979 27.7993C121.568 27.9019 121.143 27.9753 120.703 28.0193C119.852 28.0779 119.199 28.2099 118.745 28.4153C118.29 28.6206 118.063 28.9653 118.063 29.4493C118.063 29.8159 118.202 30.0946 118.481 30.2853C118.759 30.4759 119.141 30.5713 119.625 30.5713ZM141.947 30.1973L141.485 32.6393H137.107V32.4193C137.166 31.4366 137.195 30.2633 137.195 28.8993V28.3713H132.685V28.8993C132.685 30.0726 132.715 31.2459 132.773 32.4193V32.6393H129.737V32.4193C129.811 31.2459 129.847 30.0726 129.847 28.8993V23.8613C129.598 23.8613 129.085 23.9566 128.307 24.1473L127.999 24.2133L127.933 24.0813L128.373 21.6393H130.397C130.764 21.6393 131.189 21.6246 131.673 21.5953C132.157 21.5659 132.517 21.5293 132.751 21.4853L132.795 21.6173C132.722 22.6733 132.685 23.9273 132.685 25.3793V25.9073H137.195V24.6313C137.195 23.5313 137.159 22.5926 137.085 21.8153V21.6393H137.745C138.112 21.6393 138.537 21.6246 139.021 21.5953C139.505 21.5659 139.865 21.5293 140.099 21.4853L140.143 21.6173C140.07 22.4973 140.033 23.7513 140.033 25.3793V30.4173C140.224 30.4173 140.737 30.3219 141.573 30.1313C141.617 30.1166 141.661 30.1093 141.705 30.1093C141.764 30.0946 141.815 30.0799 141.859 30.0653L141.947 30.1973ZM151.583 26.1933C151.407 25.7239 151.187 25.3206 150.923 24.9833C150.673 24.6459 150.365 24.3819 149.999 24.1913C149.647 23.9859 149.236 23.8833 148.767 23.8833C148.209 23.8833 147.718 24.0226 147.293 24.3013C146.882 24.5653 146.559 24.9466 146.325 25.4453C146.09 25.9439 145.973 26.5086 145.973 27.1393C145.973 27.7699 146.09 28.3346 146.325 28.8333C146.559 29.3319 146.889 29.7206 147.315 29.9993C147.74 30.2633 148.224 30.3953 148.767 30.3953C149.324 30.3953 149.801 30.2706 150.197 30.0213C150.593 29.7719 150.908 29.4639 151.143 29.0973C151.392 28.7159 151.605 28.2833 151.781 27.7993L154.311 28.4373L152.903 33.5633H150.373L150.285 33.4533L150.813 32.2213C150.578 32.3679 150.343 32.4853 150.109 32.5733C149.874 32.6613 149.617 32.7346 149.339 32.7933C149.075 32.8519 148.796 32.8813 148.503 32.8813C147.505 32.8813 146.589 32.6319 145.753 32.1333C144.917 31.6346 144.249 30.9453 143.751 30.0653C143.267 29.1853 143.025 28.1953 143.025 27.0953C143.025 26.0099 143.267 25.0346 143.751 24.1693C144.235 23.3039 144.895 22.6293 145.731 22.1453C146.581 21.6466 147.527 21.3973 148.569 21.3973C148.847 21.3973 149.111 21.4193 149.361 21.4633C149.61 21.5073 149.837 21.5659 150.043 21.6393C150.116 21.6686 150.189 21.6979 150.263 21.7273C150.336 21.7566 150.409 21.7859 150.483 21.8153L150.043 20.8693L150.153 20.7373H152.705L153.959 25.5773L151.583 26.1933ZM157.409 32.4193C157.482 31.2459 157.519 30.0726 157.519 28.8993V23.8613C157.27 23.8613 156.756 23.9566 155.979 24.1473L155.671 24.2133L155.605 24.0813L156.045 21.6393H158.047C158.414 21.6393 158.839 21.6246 159.323 21.5953C159.822 21.5659 160.188 21.5293 160.423 21.4853L160.445 21.6173C160.372 22.5706 160.335 23.6853 160.335 24.9613V25.6433H161.963C163.503 25.6433 164.698 25.9513 165.549 26.5673C166.414 27.1686 166.847 28.0266 166.847 29.1413C166.847 30.2559 166.414 31.1213 165.549 31.7373C164.698 32.3386 163.503 32.6393 161.963 32.6393H157.409V32.4193ZM161.919 30.3953C162.579 30.3953 163.085 30.2779 163.437 30.0433C163.789 29.7939 163.965 29.4493 163.965 29.0093C163.965 28.5693 163.789 28.2319 163.437 27.9973C163.085 27.7479 162.579 27.6233 161.919 27.6233H160.335V30.3953H161.919ZM169.179 32.4193C169.252 31.2459 169.289 30.0726 169.289 28.8993V19.4613C169.04 19.4613 168.526 19.5566 167.749 19.7473L167.441 19.8133L167.375 19.6813L167.815 17.2393H169.817C170.213 17.2393 170.646 17.2246 171.115 17.1953C171.584 17.1659 171.936 17.1293 172.171 17.0853L172.237 17.2173C172.208 17.6279 172.178 18.2073 172.149 18.9553C172.12 19.8206 172.105 20.4953 172.105 20.9793V25.9073H174.063L175.009 24.6973C175.068 24.6093 175.126 24.5213 175.185 24.4333C175.258 24.3453 175.324 24.2646 175.383 24.1913C175.442 24.1033 175.5 24.0226 175.559 23.9493C175.632 23.8613 175.698 23.7806 175.757 23.7073C175.581 23.7219 175.412 23.7439 175.251 23.7733C175.09 23.7879 174.936 23.8099 174.789 23.8393C174.51 23.8686 174.312 23.8906 174.195 23.9053L174.129 23.8173L174.723 21.6393H180.047V21.8593C179.827 22.1233 179.607 22.3799 179.387 22.6293C179.079 22.9813 178.771 23.3406 178.463 23.7073C178.155 24.0593 177.84 24.4406 177.517 24.8513L176.131 26.6553L178.595 30.0873C178.698 30.2486 178.808 30.3879 178.925 30.5053C179.482 31.2533 180.003 31.8839 180.487 32.3973V32.6393H174.635L174.107 30.5053L174.173 30.3953C174.29 30.4246 174.415 30.4539 174.547 30.4833C174.694 30.4979 174.84 30.5199 174.987 30.5493C175.06 30.5346 175.332 30.5639 175.801 30.6373L174.085 28.3493H172.105V28.8993C172.105 30.2633 172.142 31.4366 172.215 32.4193V32.6393H169.179V32.4193ZM195.035 30.1973L194.573 32.6393H190.195V32.4193C190.254 31.4366 190.283 30.2633 190.283 28.8993V25.5553L183.309 33.2773H182.825C182.898 31.7226 182.935 30.1166 182.935 28.4593V23.8613C182.686 23.8613 182.172 23.9566 181.395 24.1473L181.087 24.2133L181.021 24.0813L181.461 21.6393H183.463C183.83 21.6393 184.255 21.6246 184.739 21.5953C185.238 21.5659 185.604 21.5293 185.839 21.4853L185.861 21.6173C185.788 22.6733 185.751 23.9199 185.751 25.3573V27.2273L190.657 21.6393H190.789C191.082 21.6393 191.464 21.6246 191.933 21.5953C192.402 21.5659 192.82 21.5293 193.187 21.4853L193.231 21.6173C193.202 21.8666 193.18 22.1379 193.165 22.4313C193.165 22.7246 193.158 23.0326 193.143 23.3553C193.143 23.6779 193.136 24.0153 193.121 24.3673C193.121 24.7046 193.121 25.0419 193.121 25.3793V30.4173C193.312 30.4173 193.825 30.3219 194.661 30.1313C194.705 30.1166 194.749 30.1093 194.793 30.1093C194.852 30.0946 194.903 30.0799 194.947 30.0653L195.035 30.1973ZM209.752 30.1973L209.29 32.6393H204.912V32.4193C204.971 31.4366 205 30.2633 205 28.8993V25.5553L198.026 33.2773H197.542C197.615 31.7226 197.652 30.1166 197.652 28.4593V23.8613C197.403 23.8613 196.889 23.9566 196.112 24.1473L195.804 24.2133L195.738 24.0813L196.178 21.6393H198.18C198.547 21.6393 198.972 21.6246 199.456 21.5953C199.955 21.5659 200.321 21.5293 200.556 21.4853L200.578 21.6173C200.505 22.6733 200.468 23.9199 200.468 25.3573V27.2273L205.374 21.6393H205.506C205.799 21.6393 206.181 21.6246 206.65 21.5953C207.119 21.5659 207.537 21.5293 207.904 21.4853L207.948 21.6173C207.919 21.8666 207.897 22.1379 207.882 22.4313C207.882 22.7246 207.875 23.0326 207.86 23.3553C207.86 23.6779 207.853 24.0153 207.838 24.3673C207.838 24.7046 207.838 25.0419 207.838 25.3793V30.4173C208.029 30.4173 208.542 30.3219 209.378 30.1313C209.422 30.1166 209.466 30.1093 209.51 30.1093C209.569 30.0946 209.62 30.0799 209.664 30.0653L209.752 30.1973ZM207.266 15.9853C207.266 16.7773 207.075 17.4813 206.694 18.0973C206.313 18.6986 205.777 19.1679 205.088 19.5053C204.413 19.8279 203.629 19.9893 202.734 19.9893C201.854 19.9893 201.069 19.8279 200.38 19.5053C199.691 19.1679 199.155 18.6986 198.774 18.0973C198.393 17.4813 198.202 16.7773 198.202 15.9853V15.8753L200.688 15.6773V15.9633C200.688 16.5059 200.871 16.9459 201.238 17.2833C201.619 17.6059 202.118 17.7673 202.734 17.7673C203.35 17.7673 203.849 17.6059 204.23 17.2833C204.611 16.9459 204.802 16.5059 204.802 15.9633V15.6773L207.266 15.8753V15.9853ZM215.449 35.5433L216.329 29.4273L216.439 29.3613C216.82 29.4933 217.077 29.5739 217.209 29.6033C217.341 29.6473 217.48 29.6913 217.627 29.7353C217.773 29.7646 217.927 29.8013 218.089 29.8453C218.514 28.4666 218.844 27.0586 219.079 25.6213C219.328 24.1693 219.453 22.8273 219.453 21.5953C219.453 21.4193 219.453 21.2359 219.453 21.0453C219.453 20.8546 219.453 20.6639 219.453 20.4733V19.6373C219.115 19.6666 218.558 19.7766 217.781 19.9673C217.722 19.9819 217.663 19.9966 217.605 20.0113C217.561 20.0113 217.517 20.0186 217.473 20.0333L217.385 19.9013L217.891 17.2393H230.497V17.4593C230.482 17.8113 230.467 18.1413 230.453 18.4493C230.438 18.7573 230.423 19.0506 230.409 19.3293C230.394 19.6079 230.387 19.8793 230.387 20.1433C230.387 20.4073 230.387 20.6859 230.387 20.9793V27.6453C230.387 28.0413 230.387 28.4373 230.387 28.8333C230.387 29.2293 230.387 29.6106 230.387 29.9773H230.519L231.091 29.8893L232.257 29.7573L232.653 35.6753L229.859 36.0053L229.573 34.5973C229.47 34.1133 229.316 33.7246 229.111 33.4313C228.905 33.1379 228.641 32.9326 228.319 32.8153C228.011 32.6979 227.629 32.6393 227.175 32.6393H221.125C220.597 32.6393 220.171 32.6833 219.849 32.7713C219.541 32.8739 219.284 33.0426 219.079 33.2773C218.873 33.5119 218.697 33.8419 218.551 34.2673L217.935 36.0053L215.449 35.5433ZM227.043 29.8893V20.0553H222.753L222.731 20.5393C222.555 22.2846 222.32 23.9126 222.027 25.4233C221.748 26.9339 221.389 28.4226 220.949 29.8893C221.139 29.8893 221.33 29.8893 221.521 29.8893C221.711 29.8893 221.902 29.8893 222.093 29.8893H227.043ZM235.226 32.4193C235.299 31.2459 235.336 30.0726 235.336 28.8993V23.8613C235.086 23.8613 234.573 23.9566 233.796 24.1473L233.488 24.2133L233.422 24.0813L233.862 21.6393H240.682C241.943 21.6393 242.933 21.8959 243.652 22.4093C244.37 22.9226 244.73 23.6266 244.73 24.5213C244.73 25.0786 244.576 25.5773 244.268 26.0173C243.96 26.4426 243.52 26.7726 242.948 27.0073C243.652 27.2273 244.202 27.5719 244.598 28.0413C244.994 28.5106 245.192 29.0753 245.192 29.7353C245.192 30.6299 244.818 31.3413 244.07 31.8693C243.322 32.3826 242.31 32.6393 241.034 32.6393H235.226V32.4193ZM240.55 30.4833C241.078 30.4833 241.488 30.3733 241.782 30.1533C242.09 29.9186 242.244 29.6033 242.244 29.2073C242.244 28.8553 242.082 28.5693 241.76 28.3493C241.437 28.1293 241.034 28.0193 240.55 28.0193H238.042V30.4833H240.55ZM240.198 26.2153C240.696 26.2153 241.1 26.1053 241.408 25.8853C241.716 25.6653 241.87 25.3793 241.87 25.0273C241.87 24.6606 241.716 24.3673 241.408 24.1473C241.1 23.9126 240.696 23.7953 240.198 23.7953H238.042V26.2153H240.198ZM248.224 32.4193C248.297 31.2459 248.334 30.0726 248.334 28.8993V23.8613C248.084 23.8613 247.571 23.9566 246.794 24.1473L246.486 24.2133L246.42 24.0813L246.86 21.6393H248.862C249.243 21.6393 249.668 21.6246 250.138 21.5953C250.622 21.5659 250.988 21.5293 251.238 21.4853L251.282 21.6173C251.208 22.6733 251.172 23.9273 251.172 25.3793V30.4173C251.333 30.4173 251.817 30.3293 252.624 30.1533L252.998 30.0653L253.064 30.1973L252.624 32.6393H248.224V32.4193ZM251.436 16.2493L249.456 20.3853H249.236L247.256 16.2493H251.436ZM255.571 36.8193C255.645 35.6459 255.681 34.4726 255.681 33.2993V23.8613C255.432 23.8613 254.919 23.9566 254.141 24.1473L253.833 24.2133L253.767 24.0813L254.207 21.6393H255.769C256.136 21.6393 256.561 21.6246 257.045 21.5953C257.529 21.5659 257.889 21.5293 258.123 21.4853L258.167 21.6173C258.167 21.7346 258.16 21.8519 258.145 21.9693C258.145 22.0719 258.145 22.1819 258.145 22.2993C258.131 22.4019 258.123 22.5119 258.123 22.6293C258.123 22.7466 258.116 22.8639 258.101 22.9813C258.512 22.4826 259.033 22.1013 259.663 21.8373C260.309 21.5586 260.998 21.4193 261.731 21.4193C262.743 21.4193 263.645 21.6686 264.437 22.1673C265.229 22.6513 265.845 23.3259 266.285 24.1913C266.74 25.0566 266.967 26.0393 266.967 27.1393C266.967 28.2246 266.74 29.1999 266.285 30.0653C265.831 30.9306 265.207 31.6126 264.415 32.1113C263.623 32.6099 262.729 32.8593 261.731 32.8593C261.086 32.8593 260.477 32.7493 259.905 32.5293C259.348 32.3093 258.871 32.0086 258.475 31.6273V34.8173C258.754 34.8173 259.297 34.7219 260.103 34.5313C260.25 34.5166 260.36 34.4946 260.433 34.4653L260.521 34.5973L260.037 37.0393H255.571V36.8193ZM261.203 30.3953C261.731 30.3953 262.208 30.2559 262.633 29.9773C263.073 29.6986 263.418 29.3099 263.667 28.8113C263.917 28.3126 264.041 27.7553 264.041 27.1393C264.041 26.5233 263.917 25.9659 263.667 25.4673C263.418 24.9686 263.073 24.5799 262.633 24.3013C262.208 24.0226 261.731 23.8833 261.203 23.8833C260.661 23.8833 260.177 24.0226 259.751 24.3013C259.326 24.5799 258.989 24.9686 258.739 25.4673C258.49 25.9659 258.365 26.5233 258.365 27.1393C258.365 27.7553 258.49 28.3126 258.739 28.8113C258.989 29.3099 259.326 29.6986 259.751 29.9773C260.177 30.2559 260.661 30.3953 261.203 30.3953Z" fill="url(#paint0_linear_20_4)"/>
<path fill-rule="evenodd" clip-rule="evenodd" d="M64.277 23.9951C64.277 30.438 61.9718 35.9391 57.3546 40.479C52.7308 45.0254 47.1427 47.2986 40.5901 47.2986C34.064 47.2986 28.4758 45.0319 23.8455 40.479C19.2217 35.9391 16.8966 30.438 16.8966 23.9951C16.8966 17.5717 19.2151 12.0965 23.8455 7.53717C28.489 2.99079 34.0706 0.704607 40.5901 0.704607C47.1427 0.704607 52.7308 2.98429 57.3546 7.53717C61.9652 12.0965 64.277 17.5717 64.277 23.9951ZM10.813 19.702C12.8937 18.3056 13.9374 16.4806 13.759 12.3044V1.56842C13.7392 0.0681136 10.9716 -0.113742 10.8328 1.56842L10.7272 10.278C10.7205 11.9082 8.23032 11.9602 8.23692 10.278L8.34261 1.26966C8.30958 -0.341061 5.66742 -0.503432 5.6344 1.26966C5.6344 3.77017 5.52871 7.77748 5.52871 10.278C5.66082 11.8562 3.34893 12.0641 3.40838 10.278L3.51407 1.32811C3.45462 0.113577 2.09391 -0.321577 1.16915 0.249969C0.184951 0.866978 0.383113 2.10749 0.34348 3.15316L0 13.428C0.0528431 16.4156 0.852095 18.8447 3.23004 19.8774C3.59333 20.0332 4.09534 20.1566 4.67662 20.2411L3.85755 45.2981C3.81131 46.7855 5.04652 48 6.4931 48H6.82337C8.4549 48 9.83543 46.6296 9.78919 44.9604L9.0692 20.2346C9.82882 20.1177 10.4563 19.9423 10.813 19.702ZM70.5059 44.5447L70.4663 22.0401C62.4408 17.4808 64.997 -0.0877625 73.0292 0.00965998C82.792 0.120072 83.9479 19.8059 75.5524 21.9687L76.1734 44.6357C76.2923 48.9223 70.5125 49.3184 70.5059 44.5447ZM54.3822 23.9756C54.3822 27.7296 53.0413 30.9316 50.3397 33.588C47.6447 36.2314 44.3882 37.5628 40.5703 37.5628C36.7788 37.5628 33.5224 36.2314 30.8274 33.588C28.1324 30.9316 26.7849 27.7296 26.7849 23.9756C26.7849 20.2476 28.1324 17.0456 30.8274 14.4022C33.529 11.7588 36.7788 10.4274 40.5703 10.4274C48.2392 10.4339 54.3822 16.4286 54.3822 23.9756ZM57.6122 23.9756C57.6122 19.3643 55.9609 15.4219 52.6384 12.155C49.3158 8.8881 45.2932 7.26439 40.5703 7.26439C35.8607 7.26439 31.8512 8.8881 28.5485 12.155C25.226 15.4219 23.5548 19.3643 23.5548 23.9756C23.5548 28.5999 25.226 32.5423 28.5485 35.8222C31.8512 39.0956 35.8607 40.7388 40.5703 40.7388C45.2866 40.7388 49.3092 39.0956 52.6384 35.8222C55.9543 32.5358 57.6122 28.5934 57.6122 23.9756Z" fill="url(#paint1_linear_20_4)"/>
<defs>
<linearGradient id="paint0_linear_20_4" x1="92.1099" y1="24.1209" x2="272" y2="24.1209" gradientUnits="userSpaceOnUse">
<stop stop-color="#FFC100"/>
<stop offset="1" stop-color="#FFE184"/>
</linearGradient>
<linearGradient id="paint1_linear_20_4" x1="40.585" y1="0" x2="40.585" y2="48" gradientUnits="userSpaceOnUse">
<stop stop-color="#FFC400"/>
<stop offset="0.44" stop-color="#FFD140"/>
<stop offset="1" stop-color="#FFE38D"/>
</linearGradient>
</defs>
</svg>
